<svg width="28" height="28" viewBox="0 0 28 28" fill="none" xmlns="http://www.w3.org/2000/svg">
<path d="M26.1429 21.7143C26.1429 22.0357 26.0833 22.4583 25.9643 22.9821C25.8452 23.494 25.7202 23.8988 25.5893 24.1964C25.3393 24.7917 24.6131 25.4226 23.4107 26.0893C22.2917 26.6964 21.1845 27 20.0893 27C19.7679 27 19.4524 26.9821 19.1429 26.9464C18.8333 26.8988 18.4881 26.8214 18.1071 26.7143C17.7381 26.6071 17.4583 26.5238 17.2679 26.4643C17.0893 26.3929 16.7619 26.2679 16.2857 26.0893C15.8095 25.9107 15.5179 25.8036 15.4107 25.7679C14.244 25.3512 13.2024 24.8571 12.2857 24.2857C10.7738 23.3452 9.20238 22.0595 7.57143 20.4286C5.94048 18.7976 4.65476 17.2262 3.71429 15.7143C3.14286 14.7976 2.64881 13.756 2.23214 12.5893C2.19643 12.4821 2.08929 12.1905 1.91071 11.7143C1.73214 11.2381 1.60714 10.9107 1.53571 10.7321C1.47619 10.5417 1.39286 10.2619 1.28571 9.89286C1.17857 9.5119 1.10119 9.16667 1.05357 8.85714C1.01786 8.54762 1 8.23214 1 7.91071C1 6.81548 1.30357 5.70833 1.91071 4.58928C2.57738 3.3869 3.20833 2.66071 3.80357 2.41071C4.10119 2.27976 4.50595 2.15476 5.01786 2.03571C5.54167 1.91667 5.96429 1.85714 6.28571 1.85714C6.45238 1.85714 6.57738 1.875 6.66071 1.91071C6.875 1.98214 7.19048 2.43452 7.60714 3.26786C7.7381 3.49405 7.91667 3.81547 8.14286 4.23214C8.36905 4.64881 8.57738 5.02976 8.76786 5.375C8.95833 5.70833 9.14286 6.02381 9.32143 6.32143C9.35714 6.36905 9.45833 6.51786 9.625 6.76786C9.80357 7.01786 9.93452 7.23214 10.0179 7.41071C10.1012 7.57738 10.1429 7.74405 10.1429 7.91071C10.1429 8.14881 9.97024 8.44643 9.625 8.80357C9.29167 9.16071 8.92262 9.48809 8.51786 9.78571C8.125 10.0833 7.75595 10.3988 7.41071 10.7321C7.07738 11.0655 6.91071 11.3393 6.91071 11.5536C6.91071 11.6607 6.94048 11.7976 7 11.9643C7.05952 12.119 7.10714 12.2381 7.14286 12.3214C7.19048 12.4048 7.27381 12.5476 7.39286 12.75C7.52381 12.9524 7.59524 13.0655 7.60714 13.0893C8.5119 14.7202 9.54762 16.119 10.7143 17.2857C11.881 18.4524 13.2798 19.4881 14.9107 20.3929C14.9345 20.4048 15.0476 20.4762 15.25 20.6071C15.4524 20.7262 15.5952 20.8095 15.6786 20.8571C15.7619 20.8929 15.881 20.9405 16.0357 21C16.2024 21.0595 16.3393 21.0893 16.4464 21.0893C16.6607 21.0893 16.9345 20.9226 17.2679 20.5893C17.6012 20.244 17.9167 19.875 18.2143 19.4821C18.5119 19.0774 18.8393 18.7083 19.1964 18.375C19.5536 18.0298 19.8512 17.8571 20.0893 17.8571C20.256 17.8571 20.4226 17.8988 20.5893 17.9821C20.7679 18.0655 20.9821 18.1964 21.2321 18.375C21.4821 18.5417 21.631 18.6429 21.6786 18.6786C21.9762 18.8571 22.2917 19.0417 22.625 19.2321C22.9702 19.4226 23.3512 19.631 23.7679 19.8571C24.1845 20.0833 24.506 20.2619 24.7321 20.3929C25.5655 20.8095 26.0179 21.125 26.0893 21.3393C26.125 21.4226 26.1429 21.5476 26.1429 21.7143Z" fill="#FCFCFB"/>
<path d="M25.9643 22.9821L26.9383 23.2087L26.9394 23.2038L25.9643 22.9821ZM25.5893 24.1964L24.674 23.7937L24.6706 23.8014L24.6673 23.8092L25.5893 24.1964ZM23.4107 26.0893L23.8876 26.9683L23.8956 26.9639L23.4107 26.0893ZM19.1429 26.9464L18.9908 27.9348L19.0095 27.9377L19.0282 27.9398L19.1429 26.9464ZM18.1071 26.7143L17.8283 27.6747L17.8364 27.6769L18.1071 26.7143ZM17.2679 26.4643L16.8965 27.3928L16.9325 27.4072L16.9696 27.4188L17.2679 26.4643ZM16.2857 26.0893L16.6368 25.153L16.2857 26.0893ZM15.4107 25.7679L15.0744 26.7096L15.0844 26.7132L15.0945 26.7165L15.4107 25.7679ZM12.2857 24.2857L12.8147 23.4371L12.8139 23.4366L12.2857 24.2857ZM3.71429 15.7143L4.56341 15.1861L4.5629 15.1853L3.71429 15.7143ZM2.23214 12.5893L1.28346 12.9055L1.28682 12.9156L1.2904 12.9256L2.23214 12.5893ZM1.91071 11.7143L2.84704 11.3632H2.84704L1.91071 11.7143ZM1.53571 10.7321L0.581235 11.0304L0.592816 11.0675L0.607237 11.1035L1.53571 10.7321ZM1.28571 9.89286L0.32303 10.1636L0.325368 10.1717L1.28571 9.89286ZM1.05357 8.85714L0.0601625 8.97177L0.0623276 8.99053L0.0651997 9.0092L1.05357 8.85714ZM1.91071 4.58928L1.03611 4.10436L1.03175 4.1124L1.91071 4.58928ZM3.80357 2.41071L4.1908 3.3327L4.19858 3.32943L4.20631 3.32603L3.80357 2.41071ZM5.01786 2.03571L4.79623 1.06057L4.79134 1.06171L5.01786 2.03571ZM6.66071 1.91071L6.26679 2.82986L6.30503 2.84624L6.34449 2.8594L6.66071 1.91071ZM7.60714 3.26786L6.71272 3.71507L6.72639 3.74243L6.74172 3.76889L7.60714 3.26786ZM8.76786 5.375L7.89228 5.85808L7.8959 5.86463L7.89961 5.87114L8.76786 5.375ZM9.32143 6.32143L8.46394 6.83592L8.49048 6.88016L8.52143 6.92142L9.32143 6.32143ZM9.625 6.76786L8.79295 7.32256L8.80189 7.33597L8.81127 7.3491L9.625 6.76786ZM10.0179 7.41071L9.11167 7.8336L9.11739 7.84584L9.12343 7.85793L10.0179 7.41071ZM9.625 8.80357L8.90601 8.10855L8.89992 8.11485L8.89394 8.12125L9.625 8.80357ZM8.51786 9.78571L7.92547 8.98006L7.9197 8.9843L7.914 8.98862L8.51786 9.78571ZM7.41071 10.7321L6.71612 10.0127L6.70981 10.0188L6.70361 10.025L7.41071 10.7321ZM7 11.9643L6.05826 12.3006L6.06232 12.312L6.06665 12.3233L7 11.9643ZM7.14286 12.3214L6.22371 12.7153L6.24624 12.7679L6.27461 12.8176L7.14286 12.3214ZM7.39286 12.75L6.53092 13.257L6.54172 13.2754L6.55329 13.2932L7.39286 12.75ZM7.60714 13.0893L6.71272 13.5365L6.72229 13.5557L6.73268 13.5744L7.60714 13.0893ZM14.9107 20.3929L14.4256 21.2673L14.4443 21.2777L14.4635 21.2873L14.9107 20.3929ZM15.25 20.6071L14.7068 21.4467L14.7246 21.4583L14.743 21.4691L15.25 20.6071ZM15.6786 20.8571L15.1824 21.7254L15.2321 21.7538L15.2847 21.7763L15.6786 20.8571ZM16.0357 21L15.6767 21.9333L15.688 21.9377L15.6994 21.9417L16.0357 21ZM17.2679 20.5893L17.975 21.2964L17.9812 21.2902L17.9873 21.2839L17.2679 20.5893ZM18.2143 19.4821L19.0114 20.086L19.0157 20.0803L19.0199 20.0745L18.2143 19.4821ZM19.1964 18.375L19.8787 19.1061L19.8852 19.1001L19.8915 19.094L19.1964 18.375ZM20.5893 17.9821L20.1421 18.8766L20.1542 18.8826L20.1664 18.8883L20.5893 17.9821ZM21.2321 18.375L20.6509 19.1887L20.664 19.1981L20.6774 19.2071L21.2321 18.375ZM21.6786 18.6786L21.0786 19.4786L21.1198 19.5095L21.1641 19.5361L21.6786 18.6786ZM22.625 19.2321L22.1289 20.1004L22.1354 20.1041L22.1419 20.1077L22.625 19.2321ZM24.7321 20.3929L24.2311 21.2583L24.2576 21.2736L24.2849 21.2873L24.7321 20.3929ZM26.0893 21.3393L25.1406 21.6555L25.1538 21.695L25.1701 21.7332L26.0893 21.3393ZM25.1429 21.7143C25.1429 21.9281 25.1011 22.2679 24.9892 22.7605L26.9394 23.2038C27.0656 22.6487 27.1429 22.1433 27.1429 21.7143H25.1429ZM24.9903 22.7556C24.8778 23.2391 24.7695 23.5766 24.674 23.7937L26.5046 24.5992C26.671 24.221 26.8126 23.749 26.9383 23.2087L24.9903 22.7556ZM24.6673 23.8092C24.6236 23.9134 24.5007 24.1011 24.2013 24.3612C23.9079 24.6161 23.4896 24.9021 22.9258 25.2147L23.8956 26.9639C24.5342 26.6098 25.0802 26.247 25.513 25.8709C25.9398 25.5001 26.305 25.0747 26.5113 24.5837L24.6673 23.8092ZM22.9338 25.2103C21.9373 25.751 20.9927 26 20.0893 26V28C21.3763 28 22.6461 27.6419 23.8876 26.9683L22.9338 25.2103ZM20.0893 26C19.805 26 19.5278 25.9842 19.2575 25.953L19.0282 27.9398C19.377 27.9801 19.7308 28 20.0893 28V26ZM19.2949 25.9581C19.0342 25.918 18.7295 25.8505 18.3779 25.7516L17.8364 27.6769C18.2467 27.7923 18.6324 27.8797 18.9908 27.9348L19.2949 25.9581ZM18.386 25.7539C18.0186 25.6473 17.7467 25.5662 17.5661 25.5098L16.9696 27.4188C17.17 27.4814 17.4575 27.567 17.8283 27.6746L18.386 25.7539ZM17.6392 25.5358C17.4492 25.4598 17.1123 25.3313 16.6368 25.153L15.9346 27.0256C16.4115 27.2045 16.7293 27.3259 16.8965 27.3928L17.6392 25.5358ZM16.6368 25.153C16.1685 24.9773 15.856 24.8622 15.7269 24.8192L15.0945 26.7165C15.1798 26.745 15.4506 26.8441 15.9346 27.0256L16.6368 25.153ZM15.7471 24.8261C14.6381 24.4301 13.6626 23.9656 12.8147 23.4371L11.7567 25.1343C12.7422 25.7486 13.85 26.2723 15.0744 26.7096L15.7471 24.8261ZM12.8139 23.4366C11.3826 22.5463 9.87041 21.3133 8.27854 19.7215L6.86432 21.1357C8.53435 22.8057 10.165 24.1442 11.7575 25.1348L12.8139 23.4366ZM8.27854 19.7215C6.68666 18.1296 5.45372 16.6174 4.56341 15.1861L2.86516 16.2425C3.8558 17.835 5.19429 19.4657 6.86432 21.1357L8.27854 19.7215ZM4.5629 15.1853C4.03436 14.3374 3.56993 13.3619 3.17388 12.2529L1.2904 12.9256C1.72769 14.15 2.25135 15.2578 2.86567 16.2433L4.5629 15.1853ZM3.18083 12.2731C3.13782 12.144 3.02267 11.8315 2.84704 11.3632L0.974385 12.0654C1.1559 12.5494 1.25504 12.8202 1.28346 12.9055L3.18083 12.2731ZM2.84704 11.3632C2.66874 10.8877 2.54019 10.5508 2.46419 10.3608L0.607237 11.1035C0.674095 11.2707 0.795544 11.5885 0.974385 12.0654L2.84704 11.3632ZM2.49019 10.4339C2.43377 10.2533 2.3527 9.98136 2.24606 9.61405L0.325368 10.1717C0.433016 10.5425 0.518613 10.83 0.581235 11.0304L2.49019 10.4339ZM2.24837 9.62211C2.14948 9.27052 2.08205 8.96575 2.04194 8.70508L0.0651997 9.0092C0.120335 9.36758 0.207662 9.75329 0.323063 10.1636L2.24837 9.62211ZM2.04698 8.74252C2.01579 8.47222 2 8.19504 2 7.91071H0C0 8.26924 0.0199218 8.62301 0.0601625 8.97177L2.04698 8.74252ZM2 7.91071C2 7.00727 2.24899 6.06273 2.78968 5.06617L1.03175 4.1124C0.358149 5.35394 0 6.62368 0 7.91071H2ZM2.78528 5.07419C3.0979 4.51036 3.38393 4.09207 3.6388 3.79873C3.89892 3.49934 4.08664 3.37644 4.1908 3.3327L3.41634 1.48873C2.92526 1.69498 2.49989 2.06018 2.12906 2.48698C1.75297 2.91984 1.3902 3.46583 1.03615 4.10438L2.78528 5.07419ZM4.20631 3.32603C4.42338 3.23052 4.76087 3.12216 5.24437 3.00972L4.79134 1.06171C4.25103 1.18736 3.779 1.329 3.40083 1.4954L4.20631 3.32603ZM5.23948 3.01085C5.73208 2.89889 6.07192 2.85714 6.28571 2.85714V0.857141C5.85665 0.857141 5.35126 0.934439 4.79624 1.06058L5.23948 3.01085ZM6.28571 2.85714C6.30977 2.85714 6.32827 2.85779 6.34179 2.85862C6.35544 2.85946 6.36219 2.86036 6.36304 2.86048C6.3641 2.86063 6.35623 2.85959 6.34136 2.85577C6.32675 2.85201 6.30062 2.84435 6.26679 2.82986L7.05464 0.991569C6.78229 0.874848 6.49329 0.857141 6.28571 0.857141V2.85714ZM6.34449 2.8594C6.18759 2.8071 6.11781 2.72753 6.1373 2.7468C6.14512 2.75454 6.17881 2.79101 6.23779 2.87558C6.35537 3.04419 6.51347 3.31658 6.71272 3.71507L8.50157 2.82064C8.28415 2.3858 8.07617 2.01533 7.87828 1.73156C7.77952 1.58995 7.66812 1.44784 7.5435 1.32462C7.43055 1.21294 7.24098 1.05004 6.97694 0.96203L6.34449 2.8594ZM6.74172 3.76889C6.86582 3.98324 7.03929 4.29528 7.264 4.70923L9.02171 3.75505C8.79405 3.33567 8.61038 3.00485 8.47257 2.76682L6.74172 3.76889ZM7.264 4.70923C7.49107 5.12751 7.70051 5.5105 7.89228 5.85808L9.64344 4.89192C9.45425 4.54902 9.24702 4.1701 9.02171 3.75505L7.264 4.70923ZM7.89961 5.87114C8.09324 6.20999 8.28136 6.53163 8.46394 6.83592L10.1789 5.80693C10.0044 5.51599 9.82342 5.20667 9.6361 4.87886L7.89961 5.87114ZM8.52143 6.92142C8.5195 6.91886 8.52441 6.9254 8.54009 6.94791C8.55422 6.96817 8.57309 6.99563 8.59718 7.03106C8.6453 7.10183 8.71035 7.19866 8.79295 7.32256L10.4571 6.21316C10.2985 5.97527 10.1781 5.79704 10.1214 5.72143L8.52143 6.92142ZM8.81127 7.3491C8.9716 7.57356 9.06439 7.73227 9.11167 7.8336L10.924 6.98783C10.8047 6.73202 10.6355 6.46216 10.4387 6.18662L8.81127 7.3491ZM9.12343 7.85793C9.1352 7.88146 9.13975 7.89638 9.14147 7.90325C9.14235 7.90678 9.14266 7.90889 9.14277 7.90975C9.14283 7.91021 9.14285 7.91048 9.14285 7.91059C9.14286 7.91065 9.14286 7.91068 9.14286 7.9107C9.14286 7.91071 9.14286 7.91071 9.14286 7.91071C9.14286 7.91071 9.14286 7.91071 9.14286 7.91071C9.14286 7.91079 9.14286 7.91063 9.14286 7.91071C9.14286 7.91079 9.14286 7.91063 9.14286 7.91071H11.1429C11.1429 7.57128 11.0568 7.25245 10.9123 6.9635L9.12343 7.85793ZM9.14286 7.91071C9.14286 7.79217 9.18322 7.75067 9.14836 7.81078C9.11629 7.86607 9.04486 7.96492 8.90601 8.10855L10.344 9.49859C10.5504 9.28508 10.7379 9.05655 10.8784 8.81422C11.0162 8.57671 11.1429 8.26736 11.1429 7.91071H9.14286ZM8.89394 8.12125C8.60409 8.43181 8.2817 8.71813 7.92547 8.98006L9.11025 10.5914C9.56354 10.2581 9.97924 9.88962 10.3561 9.48589L8.89394 8.12125ZM7.914 8.98862C7.49023 9.30966 7.09079 9.65099 6.71612 10.0127L8.10531 11.4515C8.42112 11.1466 8.75977 10.857 9.12171 10.5828L7.914 8.98862ZM6.70361 10.025C6.50437 10.2243 6.32067 10.4389 6.18152 10.6676C6.04685 10.8888 5.91071 11.1936 5.91071 11.5536H7.91071C7.91071 11.6297 7.896 11.6823 7.88831 11.7048C7.88082 11.7268 7.87732 11.7281 7.88991 11.7074C7.91742 11.6623 7.98372 11.5733 8.11782 11.4392L6.70361 10.025ZM5.91071 11.5536C5.91071 11.8258 5.98192 12.0869 6.05826 12.3006L7.94174 11.6279C7.92287 11.5751 7.91395 11.5414 7.91021 11.5242C7.90845 11.5161 7.90845 11.5144 7.90894 11.5185C7.90942 11.5224 7.91071 11.5345 7.91071 11.5536H5.91071ZM6.06665 12.3233C6.12766 12.4819 6.18057 12.6147 6.22371 12.7153L8.062 11.9275C8.03372 11.8615 7.99139 11.7562 7.93335 11.6053L6.06665 12.3233ZM6.27461 12.8176C6.32569 12.907 6.41191 13.0547 6.53092 13.257L8.25479 12.243C8.13571 12.0405 8.05526 11.9026 8.0111 11.8253L6.27461 12.8176ZM6.55329 13.2932C6.61808 13.3934 6.66635 13.4687 6.69915 13.5206C6.71573 13.5468 6.72656 13.5643 6.73285 13.5746C6.73606 13.5799 6.73647 13.5807 6.7351 13.5783C6.73436 13.577 6.73221 13.5733 6.72918 13.5678C6.72663 13.5632 6.72042 13.5519 6.71272 13.5365L8.50157 12.6421C8.46751 12.574 8.41192 12.4871 8.39013 12.4526C8.3515 12.3914 8.29859 12.309 8.23243 12.2067L6.55329 13.2932ZM6.73268 13.5744C7.67684 15.2763 8.76673 16.7524 10.0072 17.9928L11.4214 16.5786C10.3285 15.4857 9.34697 14.1641 8.4816 12.6042L6.73268 13.5744ZM10.0072 17.9928C11.2476 19.2333 12.7237 20.3232 14.4256 21.2673L15.3958 19.5184C13.8359 18.653 12.5143 17.6715 11.4214 16.5786L10.0072 17.9928ZM14.4635 21.2873C14.4481 21.2796 14.4368 21.2734 14.4322 21.2708C14.4267 21.2678 14.423 21.2656 14.4217 21.2649C14.4193 21.2635 14.4201 21.2639 14.4254 21.2671C14.4357 21.2734 14.4532 21.2843 14.4794 21.3008C14.5313 21.3336 14.6066 21.3819 14.7068 21.4467L15.7933 19.7676C15.691 19.7014 15.6086 19.6485 15.5474 19.6099C15.5129 19.5881 15.426 19.5325 15.3579 19.4984L14.4635 21.2873ZM14.743 21.4691C14.9453 21.5881 15.093 21.6743 15.1824 21.7254L16.1747 19.9889C16.0974 19.9447 15.9595 19.8643 15.757 19.7452L14.743 21.4691ZM15.2847 21.7763C15.3853 21.8194 15.5181 21.8723 15.6767 21.9333L16.3947 20.0667C16.2438 20.0086 16.1385 19.9663 16.0725 19.938L15.2847 21.7763ZM15.6994 21.9417C15.9131 22.0181 16.1742 22.0893 16.4464 22.0893V20.0893C16.4655 20.0893 16.4776 20.0906 16.4815 20.0911C16.4856 20.0916 16.4839 20.0915 16.4758 20.0898C16.4586 20.0861 16.4249 20.0771 16.3721 20.0583L15.6994 21.9417ZM16.4464 22.0893C16.8064 22.0893 17.1112 21.9532 17.3324 21.8185C17.5611 21.6793 17.7757 21.4956 17.975 21.2964L16.5608 19.8822C16.4267 20.0163 16.3377 20.0826 16.2926 20.1101C16.2719 20.1227 16.2732 20.1192 16.2952 20.1117C16.3177 20.104 16.3703 20.0893 16.4464 20.0893V22.0893ZM17.9873 21.2839C18.349 20.9092 18.6903 20.5098 19.0114 20.086L17.4172 18.8783C17.143 19.2402 16.8534 19.5789 16.5485 19.8947L17.9873 21.2839ZM19.0199 20.0745C19.2819 19.7183 19.5682 19.3959 19.8787 19.1061L18.5141 17.6439C18.1104 18.0208 17.7419 18.4365 17.4086 18.8898L19.0199 20.0745ZM19.8915 19.094C20.0351 18.9551 20.1339 18.8837 20.1892 18.8516C20.2493 18.8168 20.2078 18.8571 20.0893 18.8571V16.8571C19.7326 16.8571 19.4233 16.9838 19.1858 17.1216C18.9435 17.2621 18.7149 17.4496 18.5014 17.656L19.8915 19.094ZM20.0893 18.8571C20.0894 18.8571 20.0892 18.8571 20.0893 18.8571C20.0894 18.8571 20.0892 18.8571 20.0893 18.8571H20.0893C20.0893 18.8571 20.0893 18.8571 20.0893 18.8571C20.0893 18.8571 20.0893 18.8571 20.0894 18.8571C20.0895 18.8572 20.0898 18.8572 20.0903 18.8572C20.0911 18.8573 20.0932 18.8577 20.0968 18.8585C20.1036 18.8603 20.1185 18.8648 20.1421 18.8766L21.0365 17.0877C20.7475 16.9432 20.4287 16.8571 20.0893 16.8571V18.8571ZM20.1664 18.8883C20.2677 18.9356 20.4264 19.0284 20.6509 19.1887L21.8134 17.5613C21.5378 17.3645 21.268 17.1953 21.0122 17.076L20.1664 18.8883ZM20.6774 19.2071C20.8013 19.2896 20.8982 19.3547 20.9689 19.4028C21.0044 19.4269 21.0318 19.4458 21.0521 19.4599C21.0746 19.4756 21.0811 19.4805 21.0786 19.4786L22.2786 17.8786C22.203 17.8219 22.0247 17.7015 21.7868 17.5429L20.6774 19.2071ZM21.1641 19.5361C21.4684 19.7186 21.79 19.9068 22.1289 20.1004L23.1211 18.3639C22.7933 18.1766 22.484 17.9956 22.1931 17.8211L21.1641 19.5361ZM22.1419 20.1077C22.4895 20.2995 22.8725 20.5089 23.2908 20.736L24.245 18.9783C23.8299 18.753 23.451 18.5457 23.1081 18.3566L22.1419 20.1077ZM23.2908 20.736C23.7047 20.9607 24.0168 21.1342 24.2311 21.2583L25.2332 19.5274C24.9952 19.3896 24.6643 19.206 24.245 18.9783L23.2908 20.736ZM24.2849 21.2873C24.6834 21.4865 24.9558 21.6446 25.1244 21.7622C25.209 21.8212 25.2455 21.8549 25.2532 21.8627C25.2725 21.8822 25.1929 21.8124 25.1406 21.6555L27.038 21.0231C26.95 20.759 26.7871 20.5694 26.6754 20.4565C26.5522 20.3319 26.4101 20.2205 26.2684 20.1217C25.9847 19.9238 25.6142 19.7159 25.1794 19.4984L24.2849 21.2873ZM25.1701 21.7332C25.1556 21.6994 25.148 21.6733 25.1442 21.6586C25.1404 21.6438 25.1394 21.6359 25.1395 21.637C25.1396 21.6378 25.1405 21.6446 25.1414 21.6582C25.1422 21.6717 25.1429 21.6902 25.1429 21.7143H27.1429C27.1429 21.5067 27.1252 21.2177 27.0084 20.9454L25.1701 21.7332Z" fill="#434343"/>
</svg>
