<svg width="38" height="38" viewBox="0 0 38 38" fill="none" xmlns="http://www.w3.org/2000/svg">
<path d="M36.4136 20.3132C35.839 20.8878 34.9074 20.8878 34.3328 20.3132L17.6864 3.66688C17.1118 3.09228 17.1118 2.16068 17.6864 1.58608C18.261 1.01149 19.1926 1.01149 19.7672 1.58608L36.4136 18.2324C36.9882 18.807 36.9882 19.7386 36.4136 20.3132Z" fill="white"/>
<path d="M36.4136 18.2324C36.9882 18.807 36.9882 19.7386 36.4136 20.3132L19.7672 36.9596C19.1926 37.5342 18.261 37.5342 17.6864 36.9596C17.1118 36.385 17.1118 35.4534 17.6864 34.8788L34.3328 18.2324C34.9074 17.6578 35.839 17.6578 36.4136 18.2324Z" fill="white"/>
</svg>
