<svg width="38" height="38" viewBox="0 0 38 38" fill="none" xmlns="http://www.w3.org/2000/svg">
<path d="M1.58532 17.6868C2.15991 17.1122 3.09152 17.1122 3.66611 17.6868L20.3125 34.3331C20.8871 34.9077 20.8871 35.8393 20.3125 36.4139C19.7379 36.9885 18.8063 36.9885 18.2317 36.4139L1.58532 19.7676C1.01072 19.193 1.01072 18.2614 1.58532 17.6868Z" fill="black"/>
<path d="M1.58532 19.7676C1.01072 19.193 1.01072 18.2614 1.58532 17.6868L18.2317 1.0404C18.8063 0.465802 19.7379 0.465802 20.3125 1.0404C20.8871 1.61499 20.8871 2.5466 20.3125 3.12119L3.66611 19.7676C3.09152 20.3421 2.15991 20.3421 1.58532 19.7676Z" fill="black"/>
</svg>
