<svg xmlns="http://www.w3.org/2000/svg" width="56" height="56" viewBox="0 0 56 56" style="fill:#fff;"><path fill-rule="evenodd" d="M45.526 17.474a14.338 14.338 0 0 1-4.185 1.166 7.402 7.402 0 0 0 3.205-4.097 14.413 14.413 0 0 1-4.631 1.795A7.217 7.217 0 0 0 34.596 14c-4.022 0-7.286 3.317-7.286 7.408 0 .581.063 1.145.188 1.687-6.058-.309-11.427-3.256-15.024-7.743a7.49 7.49 0 0 0-.986 3.729 7.44 7.44 0 0 0 3.243 6.166 7.202 7.202 0 0 1-3.303-.924v.091c0 3.591 2.513 6.586 5.849 7.264a7 7 0 0 1-1.921.261c-.469 0-.928-.045-1.372-.131.928 2.942 3.618 5.085 6.808 5.142a14.473 14.473 0 0 1-9.052 3.173c-.588 0-1.17-.034-1.739-.102a20.418 20.418 0 0 0 11.173 3.326c13.408 0 20.738-11.288 20.738-21.079 0-.322-.006-.644-.019-.96a14.891 14.891 0 0 0 3.635-3.835"/></svg>