<svg xmlns="http://www.w3.org/2000/svg" width="56" height="56" viewBox="0 0 56 56" style="fill:#fff;"><path fill-rule="evenodd" d="M28.067 16.733c1.845 0 3.345 1.5 3.345 3.345 0 1.844-1.5 3.344-3.344 3.344a3.348 3.348 0 0 1-3.344-3.343c0-1.844 1.5-3.344 3.344-3.344l-.001-.003zm0 11.421c4.456 0 8.078-3.623 8.078-8.076 0-4.455-3.622-8.078-8.078-8.078-4.455-.001-8.078 3.622-8.078 8.077 0 4.454 3.623 8.077 8.078 8.077zm3.268 6.59a15.197 15.197 0 0 0 4.691-1.943 2.367 2.367 0 0 0-2.522-4.006 10.262 10.262 0 0 1-10.877 0 2.362 2.362 0 0 0-3.263.743 2.365 2.365 0 0 0 .743 3.263 15.117 15.117 0 0 0 4.69 1.943l-4.516 4.515a2.37 2.37 0 0 0 0 3.348 2.36 2.36 0 0 0 1.673.691c.606 0 1.213-.23 1.675-.691l4.434-4.438 4.442 4.438a2.367 2.367 0 0 0 3.345-3.348l-4.516-4.515h.001z"/></svg>