<svg xmlns="http://www.w3.org/2000/svg" width="56" height="56" viewBox="0 0 56 56" style="fill:#fff;"><path fill-rule="evenodd" d="M41.55 35.428c-1.029-.829-2.129-1.573-3.212-2.332-2.16-1.517-4.135-1.635-5.746.806-.905 1.37-2.172 1.43-3.496.829-3.652-1.656-6.471-4.207-8.123-7.919-.731-1.642-.721-3.114.988-4.276.905-.614 1.817-1.341 1.744-2.683-.095-1.75-4.344-7.598-6.022-8.215-.694-.255-1.386-.239-2.092-.001-3.934 1.323-5.564 4.559-4.003 8.39 4.656 11.43 12.85 19.388 24.129 24.245.643.277 1.357.387 1.719.486 2.568.026 5.576-2.448 6.445-4.904.836-2.362-.931-3.3-2.329-4.425zM28.903 12.809c-.683-.105-1.724.043-1.673-.86.077-1.339 1.314-.841 1.911-.927 7.921.267 14.741 7.519 14.644 15.34-.01.768.266 1.905-.878 1.883-1.094-.021-.809-1.176-.906-1.943-1.05-8.305-4.853-12.226-13.099-13.494zm1.613 2.277c5.088.611 9.244 5.025 9.203 9.875-.078.574.257 1.557-.67 1.698-1.252.19-1.008-.956-1.131-1.693-.839-5.052-2.612-6.905-7.705-8.044-.75-.168-1.917-.051-1.723-1.206.185-1.1 1.232-.727 2.026-.631zm.468 3.966c2.258-.056 4.903 2.649 4.866 4.99.023.64-.045 1.313-.802 1.404-.546.064-.905-.394-.961-.959-.209-2.083-1.308-3.315-3.397-3.651-.626-.101-1.241-.302-.948-1.148.195-.566.714-.623 1.244-.636z"/></svg>