<svg xmlns="http://www.w3.org/2000/svg" width="56" height="56" viewBox="0 0 56 56" style="fill:#fff;"><path fill-rule="evenodd" d="M38.011 31.959c-.495-.248-2.929-1.445-3.383-1.611-.454-.165-.784-.248-1.114.248-.33.496-1.279 1.611-1.568 1.941-.289.33-.577.372-1.073.124-.495-.248-2.09-.77-3.981-2.457-1.472-1.313-2.465-2.934-2.754-3.429-.289-.496-.031-.763.217-1.01.223-.222.495-.578.743-.867.248-.289.33-.496.495-.826.165-.33.083-.619-.041-.867s-1.114-2.685-1.526-3.676c-.402-.965-.81-.834-1.114-.85a20.34 20.34 0 0 0-.949-.017c-.33 0-.866.124-1.32.619-.454.496-1.733 1.693-1.733 4.13s1.774 4.791 2.021 5.121c.248.33 3.491 5.331 8.457 7.475 1.181.51 2.103.815 2.822 1.043 1.186.377 2.265.324 3.118.196.951-.142 2.929-1.197 3.341-2.354.412-1.157.412-2.148.289-2.354-.124-.207-.454-.33-.949-.578m-9.032 12.333h-.007a16.441 16.441 0 0 1-8.381-2.295l-.601-.357-6.232 1.635 1.663-6.077-.391-.623a16.434 16.434 0 0 1-2.518-8.763c.004-9.079 7.391-16.466 16.474-16.466a16.36 16.36 0 0 1 11.642 4.829 16.366 16.366 0 0 1 4.818 11.65c-.004 9.08-7.391 16.467-16.467 16.467m14.015-30.482a19.681 19.681 0 0 0-14.015-5.81c-10.92 0-19.808 8.887-19.812 19.811-.001 3.492.911 6.9 2.645 9.905L8.999 47.983l10.503-2.755a19.798 19.798 0 0 0 9.468 2.411h.008c10.919 0 19.807-8.888 19.812-19.812a19.694 19.694 0 0 0-5.797-14.016"/></svg>