<svg width="56" height="56" viewBox="0 0 56 56" xmlns="http://www.w3.org/2000/svg"><path d="M11.525 28.522c-2.009-.716-2.036-1.948-.06-2.751l28.341-11.524c1.492-.607 2.445.181 2.129 1.76l-4.991 24.885c-.334 1.665-1.699 2.179-3.048 1.15l-7.139-5.447-3.73 4.056c-.795.865-1.703.65-2.026-.479l-2.639-9.213-6.836-2.437h-.001z" fill="#FFF"/><path d="M18.305 30.938L37.442 18.05 22.59 33.354l4.122 3.288-3.686 4.008c-.795.865-1.703.65-2.026-.479l-2.639-9.213-.057-.02h.001z" fill="#C9DAE5"/><path d="M26.755 36.596l-3.006 3.269-.779.845c-.446.453-.921.573-1.306.387-.051-.177-.059-.429-.015-.751l.953-6.978 4.154 3.228h-.001z" fill="#A0BFD7"/></svg>