<svg xmlns="http://www.w3.org/2000/svg" width="56" height="56" viewBox="0 0 56 56" style="fill:#fff;"><path fill-rule="evenodd" d="M26.406 38.211h2.127s.642-.071.97-.424c.302-.325.292-.934.292-.934s-.042-2.853 1.283-3.274c1.305-.414 2.982 2.758 4.759 3.977 1.344.923 2.365.721 2.365.721l4.751-.066s2.485-.153 1.307-2.107c-.097-.16-.686-1.446-3.532-4.087-2.979-2.765-2.58-2.318 1.008-7.101 2.185-2.913 3.059-4.691 2.786-5.453-.26-.725-1.868-.534-1.868-.534l-5.349.033s-.397-.054-.691.122c-.287.172-.472.574-.472.574s-.847 2.254-1.976 4.171c-2.382 4.045-3.334 4.258-3.724 4.007-.906-.585-.68-2.352-.68-3.606 0-3.92.595-5.554-1.158-5.977-.581-.141-1.009-.233-2.496-.248-1.909-.02-3.524.006-4.439.454-.609.298-1.078.962-.792 1 .354.047 1.154.216 1.579.794.548.746.529 2.421.529 2.421s.315 4.614-.736 5.188c-.721.393-1.71-.41-3.834-4.079-1.088-1.88-1.91-3.957-1.91-3.957s-.158-.388-.441-.596c-.343-.252-.822-.332-.822-.332l-5.083.033s-.763.021-1.043.353c-.249.295-.02.906-.02.906s3.98 9.311 8.486 14.003c4.132 4.302 8.824 4.019 8.824 4.019z"/></svg>